<?xml version="1.0" standalone="no"?>
<!DOCTYPE svg PUBLIC "-//W3C//DTD SVG 1.1//EN" "http://www.w3.org/Graphics/SVG/1.1/DTD/svg11.dtd" >
<svg xmlns="http://www.w3.org/2000/svg">
<metadata>
Created by FontForge 20120731 at Wed Sep 21 19:59:05 2016
 By admin
</metadata>
<defs>
<font id="iconfont" horiz-adv-x="1024" >
  <font-face 
    font-family="iconfont"
    font-weight="500"
    font-stretch="normal"
    units-per-em="1024"
    panose-1="2 0 6 3 0 0 0 0 0 0"
    ascent="896"
    descent="-128"
    x-height="792"
    bbox="0 -129 1025 896"
    underline-thickness="50"
    underline-position="-100"
    unicode-range="U+0078-E611"
  />
<missing-glyph horiz-adv-x="374" 
d="M34 0v682h272v-682h-272zM68 34h204v614h-204v-614z" />
    <glyph glyph-name=".notdef" horiz-adv-x="374" 
d="M34 0v682h272v-682h-272zM68 34h204v614h-204v-614z" />
    <glyph glyph-name=".null" horiz-adv-x="0" 
 />
    <glyph glyph-name="nonmarkingreturn" horiz-adv-x="341" 
 />
    <glyph glyph-name="x" unicode="x" horiz-adv-x="1001" 
d="M281 543q-27 -1 -53 -1h-83q-18 0 -36.5 -6t-32.5 -18.5t-23 -32t-9 -45.5v-76h912v41q0 16 -0.5 30t-0.5 18q0 13 -5 29t-17 29.5t-31.5 22.5t-49.5 9h-133v-97h-438v97zM955 310v-52q0 -23 0.5 -52t0.5 -58t-10.5 -47.5t-26 -30t-33 -16t-31.5 -4.5q-14 -1 -29.5 -0.5
t-29.5 0.5h-32l-45 128h-439l-44 -128h-29h-34q-20 0 -45 1q-25 0 -41 9.5t-25.5 23t-13.5 29.5t-4 30v167h911zM163 247q-12 0 -21 -8.5t-9 -21.5t9 -21.5t21 -8.5q13 0 22 8.5t9 21.5t-9 21.5t-22 8.5zM316 123q-8 -26 -14 -48q-5 -19 -10.5 -37t-7.5 -25t-3 -15t1 -14.5
t9.5 -10.5t21.5 -4h37h67h81h80h64h36q23 0 34 12t2 38q-5 13 -9.5 30.5t-9.5 34.5q-5 19 -11 39h-368zM336 498v228q0 11 2.5 23t10 21.5t20.5 15.5t34 6h188q31 0 51.5 -14.5t20.5 -52.5v-227h-327z" />
    <glyph glyph-name="uniE600" unicode="&#xe600;" 
d="M927 -1l-157 169q51 55 79.5 125t28.5 148q0 108 -53.5 200t-146 146t-201 54t-200.5 -54t-145.5 -146t-53.5 -200.5t53.5 -200.5t145.5 -145.5t201 -53.5q130 0 235 77l158 -171q11 -12 28 -12q15 0 26 10q11 11 12 26.5t-10 27.5zM154 441q0 88 43.5 162.5t118 118
t162.5 43.5t162.5 -43.5t118 -118t43.5 -162.5t-43.5 -162.5t-118 -118t-162.5 -43.5t-162.5 43.5t-118 118t-43.5 162.5z" />
    <glyph glyph-name="uniE601" unicode="&#xe601;" 
d="M736 416h-193v193q0 14 -9.5 23.5t-23 9.5t-23 -9.5t-9.5 -23.5v-193h-193q-13 0 -22.5 -9.5t-9.5 -22.5t9.5 -22.5t22.5 -9.5h193v-193q0 -13 9.5 -22.5t23 -9.5t23 9.5t9.5 22.5v193h193q13 0 22.5 9.5t9.5 22.5t-9.5 22.5t-22.5 9.5zM510.5 -60q-90.5 0 -172.5 35
q-80 34 -141.5 95.5t-95.5 140.5q-35 83 -35 173t35 173q34 80 95.5 141.5t141.5 94.5q82 35 172.5 35t172.5 -35q80 -33 141.5 -94.5t95.5 -141.5q35 -83 35 -173t-35 -173q-34 -79 -95.5 -140.5t-141.5 -95.5q-82 -35 -172.5 -35zM510.5 777q-106.5 0 -197 -52.5
t-143.5 -143t-53 -197t53 -197.5t143.5 -143.5t197 -52.5t197 52.5t143 143.5t52.5 197.5t-52.5 197t-143 143t-197 52.5z" />
    <glyph glyph-name="uniE602" unicode="&#xe602;" 
d="M512 896q-139 0 -257 -68.5t-186.5 -186.5t-68.5 -257t68.5 -257t186.5 -186.5t257 -68.5t257 68.5t186.5 186.5t68.5 257t-68.5 257t-186.5 186.5t-257 68.5zM768 352h-224v-224q0 -13 -9.5 -22.5t-22.5 -9.5t-22.5 9.5t-9.5 22.5v224h-224q-13 0 -22.5 9.5t-9.5 22.5
t9.5 22.5t22.5 9.5h224v224q0 13 9.5 22.5t22.5 9.5t22.5 -9.5t9.5 -22.5v-224h224q13 0 22.5 -9.5t9.5 -22.5t-9.5 -22.5t-22.5 -9.5z" />
    <glyph glyph-name="uniE603" unicode="&#xe603;" 
d="M237 612l132 -376l-28 20h549q12 0 20.5 -8.5t8.5 -21t-8.5 -21t-20.5 -8.5h-549q-20 0 -27 20l-205 584l28 -19h-59q-13 0 -21.5 8.5t-8.5 20.5t8.5 20.5t21.5 8.5h59q20 0 27 -20l53 -150h711q14 0 22.5 -11t5.5 -24l-46 -228q-5 -20 -26 -23l-431 -48
q-12 -1 -21.5 6.5t-11 19.5t6 21.5t19.5 10.5l411 47q21 97 36 170q0 1 -80 1h-206h-209h-161zM407.5 78q17.5 0 30 -12.5t12.5 -30t-12.5 -30t-30 -12.5t-30 12.5t-12.5 30t12.5 30t30 12.5zM407 133q-40 0 -69 -28.5t-29 -69t29 -69.5t69.5 -29t69.5 29t29 69.5t-29 69
t-70 28.5zM816.5 78q17.5 0 30 -12.5t12.5 -30t-12.5 -30t-30 -12.5t-30 12.5t-12.5 30t12.5 30t30 12.5zM816 133q-40 0 -69 -28.5t-29 -69t29 -69.5t69.5 -29t69.5 29t29 69.5t-29 69t-70 28.5zM816 -63z" />
    <glyph glyph-name="uniE604" unicode="&#xe604;" 
d="M690 326q62 44 98 111.5t36 145.5q0 129 -91.5 220.5t-221 91.5t-221 -91.5t-91.5 -220.5q0 -78 36 -145.5t98 -110.5q-139 -55 -225.5 -179t-86.5 -277h88v1q0 153 102 266.5t252 131.5q56 5 101 -1h3l1 -1q147 -21 245.5 -133.5t98.5 -262.5v-1h89q0 153 -86 277
t-225 178zM512 349q-97 0 -165.5 68.5t-68.5 165.5t68.5 165.5t165.5 68.5t165.5 -68.5t68.5 -165.5t-68.5 -165.5t-165.5 -68.5z" />
    <glyph glyph-name="uniE605" unicode="&#xe605;" 
d="M811.5 382q-14.5 0 -25 -10t-10.5 -25v-312q-2 -35 -14 -46.5t-47 -13.5h-400q-40 1 -53.5 13t-15.5 53v306q0 15 -10 25t-25 10t-25 -10t-10 -25v-372q0 -34 22.5 -51.5t58.5 -17.5h42v-1l422 1h42q36 0 59.5 18t23.5 51v45h1v327q0 15 -10.5 25t-25 10zM1004 388
l-461 459q-2 4 -5 7q-12 12 -29 9q-13 0 -23 -10v-1h-1l-3 -3l-463 -462q-24 -24 -2 -46q25 -26 49 -2l445 438l448 -437q24 -24 49 2q21 20 -4 46zM741 753h106v-106q0 -14 10 -24.5t24.5 -10.5t25 10.5t10.5 24.5v142q0 14 -10.5 24.5t-24.5 10.5h-141q-15 0 -25.5 -10.5
t-10.5 -25t10.5 -25t25.5 -10.5z" />
    <glyph glyph-name="uniE606" unicode="&#xe606;" 
d="M640 533q-36 9 -70 -3t-59 -43q-25 31 -59 43t-71 3q-41 -11 -69 -47t-25 -90q5 -81 64.5 -145.5t151.5 -88.5q3 -1 6 -1h1h1h1q4 0 7 1q92 24 151.5 88.5t64.5 145.5q3 54 -25 90t-70 47zM511 215q-73 20 -120.5 71t-50.5 114q-2 32 14 53.5t40 28.5q25 6 50 -6t41 -46
q8 -16 26 -15q18 -1 25 15q16 34 41.5 46t49.5 6q24 -7 40.5 -28.5t14.5 -53.5q-4 -63 -51 -114t-120 -71zM799 734h-229q-4 30 -26.5 50t-53.5 20h-197q-31 0 -53.5 -20t-26.5 -50q-63 -4 -106.5 -50t-43.5 -110v-428q0 -67 47 -114t113 -47h576q66 0 113 47t47 114v428
q0 66 -47 113t-113 47zM906 146q0 -45 -31.5 -76.5t-75.5 -31.5h-576q-45 0 -76.5 31.5t-31.5 76.5v428q0 44 31.5 76t76.5 32h16q11 0 19 7.5t8 18.5v16q0 11 7.5 19t19.5 8h197q12 0 19.5 -8t7.5 -19v-16q0 -11 8 -18.5t19 -7.5h255q44 0 75.5 -32t31.5 -76v-428z" />
    <glyph glyph-name="uniE607" unicode="&#xe607;" 
d="M400 833h-252q-35 0 -59.5 -24.5t-24.5 -59.5v-252q0 -35 24.5 -59.5t59.5 -24.5h252q35 0 59.5 24.5t24.5 59.5v252q0 35 -24.5 59.5t-59.5 24.5zM424 500q0 -11 -8 -19t-19 -8h-246q-11 0 -19 8t-8 19v246q0 11 8 19t19 8h246q11 0 19 -8t8 -19v-246zM876 833h-252
q-35 0 -59.5 -24.5t-24.5 -59.5v-364q0 -35 24.5 -59.5t59.5 -24.5h252q34 0 59 24.5t25 59.5v364q0 35 -25 59.5t-59 24.5zM901 388q0 -12 -8 -20t-20 -8h-247q-11 0 -19 8t-8 20v358q0 12 8 20t19 8h247q12 0 20 -8t8 -20v-358zM400 357h-252q-35 0 -59.5 -24.5
t-24.5 -59.5v-252q0 -34 24.5 -59t59.5 -25h252q35 0 59.5 25t24.5 59v252q0 35 -24.5 59.5t-59.5 24.5zM425 24q0 -12 -8 -20t-20 -8h-247q-11 0 -19 8t-8 20v247q0 11 8 19t19 8h247q12 0 20 -8t8 -19v-247zM876 245h-252q-35 0 -59.5 -24.5t-24.5 -59.5v-140
q0 -34 24.5 -59t59.5 -25h252q34 0 58.5 25t25.5 59v140q0 35 -25 59.5t-59 24.5zM901 24q0 -12 -8 -20t-20 -8h-247q-11 0 -19 8t-8 20v135q0 11 8 19t19 8h247q12 0 20 -8t8 -19v-135z" />
    <glyph glyph-name="uniE608" unicode="&#xe608;" 
d="M512.5 558q-72.5 0 -124 -51.5t-51.5 -124t51.5 -123.5t124 -51t123.5 51t51 123.5t-51 124t-123.5 51.5zM512.5 247q-56.5 0 -96.5 39.5t-40 96t40 96.5t96.5 40t96 -40t39.5 -96.5t-39.5 -96t-96 -39.5zM959 319v128l-145 41q-6 17 -14 33l74 133l-91 90l-132 -73
q-16 7 -33 13l-42 146h-128l-41 -146q-17 -6 -33 -13l-133 73l-90 -90l73 -133q-8 -16 -13 -33l-146 -41v-128l146 -42q5 -17 13 -33l-73 -132l90 -91l133 74q16 -8 33 -14l41 -146h128l42 146q17 6 33 14l132 -74l91 91l-74 132q8 16 14 33zM765 227q5 -20 13 -39.5
t15.5 -33t14.5 -23.5t11 -15l4 -6l-39 -38q-87 52 -116 58q-25 5 -48 -4.5t-30 -34.5q-4 -16 -14 -45t-18 -50l-7 -22h-78q-11 132 -19 136q-1 1 -6.5 6t-12.5 9.5t-17.5 8t-26.5 3t-34 -6.5q-30 -9 -59 -23.5t-44 -24.5l-14 -10l-39 38q50 104 58 117q6 8 8 20.5t-4 29.5
t-23 28t-51.5 20.5t-58.5 14t-26 4.5v78q96 17 116 19q19 2 36 34.5t3 62.5q-8 20 -22.5 49t-25.5 48l-10 20l58 39q6 -6 15.5 -14.5t35.5 -24.5t47 -20q36 -4 49.5 -0.5t27.5 20.5q25 29 39 136h78v-14q0 -9 4 -33t11 -43.5t23.5 -38.5t39.5 -27q18 -5 29.5 -4t19.5 3t9 1
q2 -1 26 14l48 30l23 15l39 -39q-51 -83 -58 -97q-3 -7 -5 -22t-1 -34.5t12.5 -36.5t32.5 -24q27 -9 56 -13.5t45 -5.5h16v-78q-107 -14 -117 -20l-5 -3q-5 -3 -8 -4.5t-8.5 -6.5t-8.5 -9.5t-7 -12.5t-5 -16.5t-0.5 -20t3.5 -24.5z" />
    <glyph glyph-name="uniE609" unicode="&#xe609;" 
d="M681 528h-336q-20 0 -34 14t-14 34v125q0 19 14 33t34 14h57q6 41 37.5 69t73.5 28t73.5 -28t37.5 -69h57q20 0 34 -14t14 -33v-125q0 -20 -14 -34t-34 -14zM345 702q-2 0 -2 -1v-125q0 -2 2 -2h336q2 0 2 2v125q0 1 -2 1h-104l2 25v6q0 27 -19.5 46.5t-46.5 19.5
t-46.5 -19.5t-19.5 -46.5q0 -3 1 -6l2 -25h-105zM318 123h389v-46h-389v46zM318 270h389v-46h-389v46zM318 416h389v-46h-389v46zM810 -77h-596q-24 0 -41 17t-17 41v622q0 24 17 41t41 17h82v39q0 20 13.5 34t33.5 14h58q5 41 37 69t74 28t74 -28t37 -69h58q20 0 33.5 -14
t13.5 -34v-39h82q24 0 41 -17t17 -41v-622q0 -24 -17 -41t-41 -17zM214 614q-5 0 -8.5 -3t-3.5 -8v-622q0 -5 3.5 -8.5t8.5 -3.5h596q5 0 8.5 3.5t3.5 8.5v622q0 5 -3.5 8t-8.5 3h-128v86q0 2 -1 2h-105l2 25v6q0 27 -19.5 46.5t-46.5 19.5t-46.5 -19.5t-19.5 -46.5v-6
l2 -25h-105q-1 0 -1 -2v-86h-128zM214 614z" />
    <glyph glyph-name="uniE60A" unicode="&#xe60a;" 
d="M511 -60q-9 0 -46.5 37.5t-87 99.5t-97 132t-80 145t-32.5 128q0 94 46 173t125 125t172.5 46t172.5 -46t125 -125t46 -173q0 -53 -33 -128t-80.5 -145t-97 -132t-87 -99.5t-46.5 -37.5zM511 781q-123 0 -210.5 -87.5t-87.5 -211.5q0 -46 30 -114t72.5 -132.5
t86.5 -122.5t75 -93t34 -35q2 0 32.5 35t75 93t87.5 122.5t73.5 132.5t30.5 114q0 124 -87.5 211.5t-211.5 87.5zM511 361q-50 0 -85.5 35.5t-35.5 86t35.5 86t86 35.5t86 -35.5t35.5 -86t-35.5 -86t-86.5 -35.5zM511 560q-32 0 -54.5 -23t-22.5 -55t22.5 -54.5t55 -22.5
t55 22.5t22.5 54.5t-22.5 55t-55.5 23zM511 560z" />
    <glyph glyph-name="uniE60B" unicode="&#xe60b;" horiz-adv-x="1025" 
d="M871 455q-11 0 -19 -8t-8 -19v-253q0 -11 8 -19v0q8 -8 19 -8h73q11 0 19 8v0q8 8 8 19v253q0 11 -7 18l-1 1q-8 8 -19 8h-73zM583 69q-2 0 -3 1q-15 8 -31 4q-18 -5 -27 -21q-5 -9 -6 -20v-2q0 -6 2 -11q4 -16 18 -25l4 -2q15 -8 31 -4q17 5 26 20l2 2q7 15 3 32
q-4 16 -19 26zM609 116q35 -20 45 -59t-10 -74v0q-20 -35 -59 -45.5t-74 9.5v1q-34 19 -45 57h-173h-3q-50 1 -106 16t-99 42q-85 55 -85 140v225q0 34 24 57.5t57 23.5h11q14 153 123 263q59 58 136.5 91t164 33t164.5 -33t136 -91q110 -109 123 -263h5q33 0 57 -24
q1 0 2 -2q22 -23 22 -55v-253q0 -33 -24 -57t-57 -24h-73q-33 0 -57 24t-24 57v253q0 34 23.5 57.5t57.5 23.5h14q-13 131 -107 225q-51 51 -119 79.5t-143.5 28.5t-143 -28.5t-119.5 -79.5q-93 -94 -107 -225h8q34 0 57 -24l2 -2q22 -23 22 -55v-228q0 -12 -8 -19.5
t-19 -7.5t-19 7.5t-8 19.5v228q0 10 -7 18l-1 1q-8 8 -19 8h-73q-11 0 -19 -8t-8 -19v-225q0 -56 60 -94q36 -24 85 -36.5t93 -14.5h1h173q4 12 10 22v0q20 35 59 45.5t74 -9.5v0z" />
    <glyph glyph-name="uniE60C" unicode="&#xe60c;" 
d="M270.5 386q33.5 0 57 23.5t23.5 56.5t-23.5 56.5t-57 23.5t-57 -23.5t-23.5 -56.5t23.5 -56.5t57 -23.5zM270.5 506q16.5 0 28.5 -11.5t12 -28.5t-12 -28.5t-28.5 -11.5t-28.5 11.5t-12 28.5t12 28.5t28.5 11.5zM713 667h-563q-34 0 -57.5 -23.5t-23.5 -56.5v-563
q0 -34 23.5 -57.5t57.5 -23.5h563q33 0 56.5 23.5t23.5 57.5v563q0 33 -23.5 56.5t-56.5 23.5zM753 24q0 -17 -12 -28.5t-28 -11.5h-563q-17 0 -28.5 11.5t-11.5 28.5v563q0 16 11.5 28t28.5 12h563q16 0 28 -12t12 -28v-563zM874 828h-563q-34 0 -57.5 -23.5t-23.5 -56.5
v-21q0 -8 6 -14t14.5 -6t14 6t5.5 14v21q0 16 12 28t29 12h563q16 0 28 -12t12 -28v-563q0 -17 -12 -29t-28 -12h-21q-8 0 -14 -5.5t-6 -14t6 -14.5t14 -6h21q33 0 56.5 23.5t23.5 57.5v563q0 33 -23.5 56.5t-56.5 23.5zM671 92h-1v1l-120 200q-5 12 -18 12q-9 0 -14 -6
l-64 -63l-65 97q-5 12 -18 12q-10 0 -17 -9l-161 -241h1q-4 -5 -4 -11q0 -8 6 -14t14 -6h442q9 0 14.5 6t5.5 14q0 4 -1 7v1zM248 104l123 185l62 -92q5 -12 18 -12q9 0 15 5l62 63l89 -149h-369z" />
    <glyph glyph-name="uniE60D" unicode="&#xe60d;" 
d="M656 -128h-425q-55 0 -94.5 39t-39.5 94v758q0 55 39.5 94t94.5 39h563q55 0 93.5 -39t38.5 -94v-625q0 -10 -7 -17.5t-17.5 -7.5t-17.5 7t-7 18v625q0 35 -24.5 59.5t-59.5 24.5h-562q-35 0 -59.5 -24.5t-24.5 -59.5v-758q0 -35 24.5 -59.5t59.5 -24.5h425q10 0 17 -7.5
t7 -17.5t-7 -17t-17 -7zM702 502h-379q-10 0 -17.5 7.5t-7.5 18t7.5 18t17.5 7.5h379q9 0 16.5 -8t7.5 -18t-7 -17.5t-17 -7.5zM674 358h-324q-10 0 -17.5 7t-7.5 16.5t7 16t18 6.5h325q10 0 17.5 -6.5t7.5 -16t-7.5 -16.5t-18.5 -7zM510 164q-10 0 -16.5 7.5t-6.5 17.5v325
q0 10 6.5 17.5t16.5 7.5t16.5 -7.5t6.5 -17.5v-325q0 -10 -7 -17.5t-16 -7.5zM656 -128q-6 0 -10 2q-15 6 -15 23v132q0 55 39 94t94 39h138q17 0 23 -16q6 -15 -6 -26l-246 -241q-8 -7 -17 -7zM764 113q-34 0 -59 -24.5t-25 -59.5v-75l162 159h-78zM512 506q-9 0 -17 7
l-146 146q-7 8 -7 18t7 17t17 7t17 -7l129 -129l129 129q7 7 17.5 7t16.5 -7q8 -8 8 -18t-8 -17l-146 -146q-7 -7 -17 -7z" />
    <glyph glyph-name="uniE60E" unicode="&#xe60e;" 
d="M955 554h-350q55 46 100 109.5t39 109t-56 58.5q-10 2 -21 2q-30 0 -55.5 -22t-40.5 -52t-26 -71t-15.5 -68t-7.5 -53q-3 26 -7.5 53t-15.5 68t-26 71t-40.5 52t-55.5 22q-11 0 -21 -2q-50 -13 -56 -58.5t39 -109t100 -109.5h-374v-166h63v104h358v-215h-323v-61h323
v-220h-327v232h-62v-293h836v445h22v174zM667 772q3 0 6 -1q8 -2 9 -6q2 -20 -24.5 -60t-62.5 -77q12 62 32 103t40 41zM362 765q1 4 9 6q3 1 6 1q20 0 40 -41t32 -103q-36 37 -62.5 77t-24.5 60zM549 492h344v-95h-23v-120h-321v215zM549 -4v220h321v-220h-321z" />
    <glyph glyph-name="uniE60F" unicode="&#xe60f;" 
d="M197 479q-39 0 -67 -28t-28 -67t28 -67t67 -28t67 28t28 67t-28 67t-67 28zM512 479q-39 0 -67 -28t-28 -67t28 -67t67 -28t67 28t28 67t-28 67t-67 28zM827 479q-39 0 -67 -28t-28 -67t28 -67t67 -28t67 28t28 67t-28 67t-67 28z" />
    <glyph glyph-name="uniE610" unicode="&#xe610;" 
d="M512 -125q103 0 197.5 40.5t162.5 108.5t108.5 162.5t40.5 197.5t-40.5 197.5t-108.5 162.5t-162.5 108.5t-197.5 40.5t-197.5 -40.5t-162.5 -108.5t-108.5 -162.5t-40.5 -197.5t40.5 -197.5t108.5 -162.5t162.5 -108.5t197.5 -40.5zM512 859q96 0 184 -38t151.5 -101.5
t101.5 -151.5t38 -184t-38 -184t-101.5 -151.5t-151.5 -101.5t-184 -38t-184 38t-151.5 101.5t-101.5 151.5t-38 184t38 184t101.5 151.5t151.5 101.5t184 38zM495 659h34v-389h-34v389zM478 168q0 -14 10 -24t24 -10t24 10t10 24t-10 24t-24 10t-24 -10t-10 -24z" />
    <glyph glyph-name="uniE611" unicode="&#xe611;" 
d="M831 830h-636q-25 0 -43 -17.5t-18 -43.5v-769q0 -25 18 -43t43 -18h636q25 0 43 18t18 43v769q0 26 -18 43.5t-43 17.5zM846 31q0 -19 -13.5 -32.5t-32.5 -13.5h-575q-19 0 -32 13.5t-13 32.5l1 717q0 35 45 35h574q19 0 32.5 -13t13.5 -32v-707zM781 295
q0 -7 -5.5 -12.5t-12.5 -5.5h-500q-8 0 -13 5.5t-5 12.5t5 12t13 5h500q7 0 12.5 -5t5.5 -12v0zM781 98q0 -7 -5.5 -12t-12.5 -5h-500q-8 0 -13 5t-5 12q0 8 5 13t13 5h500q7 0 12.5 -5t5.5 -13v0zM781 688q0 -9 -6.5 -15t-14.5 -6h-207q-9 0 -15 6t-6 15q0 8 6 14t15 6h207
q8 0 14.5 -6t6.5 -14v0zM781 491q0 -8 -6.5 -14t-14.5 -6h-207q-9 0 -15 6t-6 14q0 9 6 15t15 6h207q8 0 14.5 -6t6.5 -15v0zM451 545h-79v73h79q8 0 13 5.5t5 13t-5 12.5t-13 5h-30l35 35q5 5 5 12.5t-5 12.5t-12.5 5t-12.5 -5l-61 -60h-31l-61 60q-5 5 -12.5 5t-12.5 -5
t-5 -12.5t5 -12.5l35 -35h-31q-8 0 -13 -5t-5 -12.5t5 -13t13 -5.5h79v-73h-79q-8 0 -13 -5t-5 -13t5 -13t13 -5h79v-91q0 -8 5.5 -13t13 -5t12.5 5t5 13v91h79q8 0 13 5t5 13t-5 13t-13 5zM451 545z" />
  </font>
</defs>
</svg>
